<?xml version="1.0" standalone="no"?>
<!DOCTYPE svg PUBLIC "-//W3C//DTD SVG 20010904//EN"
 "http://www.w3.org/TR/2001/REC-SVG-20010904/DTD/svg10.dtd">
<svg version="1.0" xmlns="http://www.w3.org/2000/svg"
 width="640.000000pt" height="640.000000pt" viewBox="0 0 640.000000 640.000000"
 preserveAspectRatio="xMidYMid meet">

<g transform="translate(0.000000,640.000000) scale(0.100000,-0.100000)"
fill="#ffffff" stroke="none">
<path d="M4602 5259 c-52 -26 -46 -17 -232 -343 -196 -341 -192 -308 -62 -533
114 -199 124 -223 124 -299 1 -105 -53 -194 -152 -252 l-45 -27 -418 -3 -418
-3 -53 24 c-128 59 -199 196 -167 324 7 26 42 100 78 162 95 165 96 154 -58
420 -79 136 -135 221 -154 235 -29 20 -40 21 -300 21 -254 0 -272 -1 -297 -20
-15 -11 -83 -117 -152 -235 -110 -189 -126 -221 -126 -260 0 -40 15 -71 120
-255 67 -116 132 -221 146 -235 23 -23 33 -25 152 -31 156 -7 210 -27 277
-101 68 -76 93 -190 62 -278 -22 -59 -435 -771 -470 -808 -85 -91 -242 -112
-353 -47 -57 33 -85 70 -176 227 -42 74 -85 141 -95 151 -49 44 -76 47 -415
47 -293 0 -327 -2 -363 -19 -22 -10 -49 -29 -61 -42 -20 -23 -268 -448 -314
-538 -17 -34 -21 -56 -18 -97 4 -45 24 -87 152 -310 82 -143 160 -274 174
-293 50 -67 69 -71 423 -71 323 0 356 3 409 40 14 10 63 84 110 165 99 172
151 226 238 251 101 30 217 -1 288 -78 18 -18 139 -217 269 -443 131 -225 251
-429 268 -452 36 -50 86 -87 156 -113 49 -19 81 -20 684 -20 700 0 690 -1 784
64 57 39 80 74 260 386 378 656 434 756 444 794 6 23 9 75 7 116 -6 91 -3 86
-233 485 -361 627 -342 587 -331 688 10 99 60 174 148 222 52 29 58 30 228 35
186 6 210 12 257 62 12 12 70 106 129 208 219 380 207 356 207 413 0 62 3 56
-186 382 -117 200 -153 255 -183 275 l-37 25 -341 3 c-331 2 -342 2 -384 -19z
m482 -380 c67 -25 140 -92 167 -155 46 -102 34 -216 -32 -308 -36 -50 -50 -60
-162 -114 -150 -73 -210 -124 -292 -252 -127 -196 -283 -504 -312 -615 -19
-74 -13 -201 13 -265 16 -41 187 -343 317 -560 42 -71 51 -95 55 -145 l4 -60
-172 -300 c-277 -482 -277 -483 -323 -513 l-41 -27 -467 0 -467 0 -42 30 c-35
25 -66 71 -181 270 -184 320 -181 315 -254 383 -70 66 -137 103 -235 129 -56
15 -110 18 -375 17 -411 0 -467 -12 -648 -135 -105 -71 -150 -89 -226 -89
-105 0 -199 61 -254 164 -32 60 -31 184 1 246 45 86 113 138 210 160 70 16
157 -6 222 -56 84 -64 133 -93 199 -118 118 -45 197 -52 531 -50 275 2 351 13
456 64 118 57 177 125 304 347 141 249 167 346 136 497 -27 130 -191 462 -311
631 -56 79 -144 164 -235 228 -51 36 -80 65 -97 96 -68 130 24 282 170 282 66
0 125 -27 160 -73 33 -44 40 -72 38 -139 -7 -189 89 -440 289 -759 102 -163
173 -236 273 -284 95 -45 160 -56 342 -56 178 0 238 9 321 50 90 44 152 112
246 268 89 149 225 422 258 517 29 84 36 211 16 305 -20 94 -20 137 0 196 58
171 232 256 398 193z"/>
<path d="M3729 2866 c-119 -33 -217 -118 -272 -234 -30 -63 -32 -74 -32 -177
0 -103 2 -114 32 -178 60 -127 174 -213 316 -238 226 -41 449 122 486 356 25
164 -66 351 -210 429 -98 54 -219 70 -320 42z"/>
</g>
</svg>
