<svg version="1.1" id="Layer_1" xmlns="http://www.w3.org/2000/svg" x="0px" y="0px"
	 viewBox="0 0 115 47">
<g>
	<path fill="#555555" d="M10.2,29.2c0,1.2,0,3.3,2.7,3.3c0.7,0,1.2,0,1.5-0.1v5c-0.7,0.1-1.8,0.2-2.7,0.2c-4.6,0-7.5-0.8-7.5-5.5V19.9
		H1.6v-5.2h2.7V8.8h5.9v5.9h4.4v5.2h-4.4V29.2z"/>
	<path fill="#555555" d="M18.1,26.1c0-9,7.8-11.4,12-11.4c5.6,0,11.3,3.8,11.5,10.9c0,1.7-0.1,2.8-0.1,2.8H24.1c0.7,3.6,4.8,4,6,4
		c3.3,0,5-1.8,5.6-2.6l4.6,2.7c-0.9,1.2-3.8,5.1-10.3,5.1C25.8,37.6,18.1,35.1,18.1,26.1z M24.2,24.1h11c-0.2-2-2.2-4.2-5.2-4.2
		C26.6,19.9,24.5,21.8,24.2,24.1z"/>
	<path fill="#555555" d="M46.4,6.8h6V37h-6V6.8z"/>
	<path fill="#555555" d="M58.2,6.8h6V37h-6V6.8z"/>
	<path fill="#555555" d="M68.9,26c0-6.3,5.4-11.4,11.9-11.4s12,5.2,12,11.4c0,6.4-5.4,11.5-12,11.5S68.9,32.4,68.9,26z M74.8,26
		c0,3.6,2.6,6.3,6,6.3c3.4,0,6-2.7,6-6.3c0-3.5-2.6-6.2-6-6.2C77.4,19.8,74.8,22.6,74.8,26z"/>
	<path fill="#555555" d="M103.6,27.3V37h-6V15h6v2.9c2.2-3,6-3.4,7.5-3.3v5.8C109.6,20.3,103.6,20.6,103.6,27.3z"/>
</g>
</svg>
